<mxfile host="app.diagrams.net" agent="Mozilla/5.0 (Windows NT 10.0; Win64; x64) AppleWebKit/537.36 (KHTML, like Gecko) Chrome/136.0.0.0 Safari/537.36" version="27.0.9">
  <diagram name="Page-1" id="2YBvvXClWsGukQMizWep">
    <mxGraphModel dx="701" dy="775" grid="1" gridSize="10" guides="1" tooltips="1" connect="1" arrows="1" fold="1" page="1" pageScale="1" pageWidth="850" pageHeight="1100" math="0" shadow="0">
      <root>
        <mxCell id="0" />
        <mxCell id="1" parent="0" />
        <mxCell id="aM9ryv3xv72pqoxQDRHE-1" value="Mngr_Home_Scr" style="shape=umlLifeline;perimeter=lifelinePerimeter;whiteSpace=wrap;html=1;container=0;dropTarget=0;collapsible=0;recursiveResize=0;outlineConnect=0;portConstraint=eastwest;newEdgeStyle={&quot;edgeStyle&quot;:&quot;elbowEdgeStyle&quot;,&quot;elbow&quot;:&quot;vertical&quot;,&quot;curved&quot;:0,&quot;rounded&quot;:0};" parent="1" vertex="1">
          <mxGeometry x="185" y="40" width="100" height="650" as="geometry" />
        </mxCell>
        <mxCell id="H98rCoK42WbpM3wih2S7-3" value="" style="html=1;points=[[0,0,0,0,0],[0,1,0,0,0],[1,0,0,0,0],[1,1,0,0,0]];perimeter=orthogonalPerimeter;outlineConnect=0;targetShapes=umlLifeline;portConstraint=eastwest;newEdgeStyle={&quot;curved&quot;:0,&quot;rounded&quot;:0};" parent="aM9ryv3xv72pqoxQDRHE-1" vertex="1">
          <mxGeometry x="45" y="68" width="10" height="42" as="geometry" />
        </mxCell>
        <mxCell id="aM9ryv3xv72pqoxQDRHE-5" value="Mngr_&lt;span style=&quot;background-color: transparent; color: light-dark(rgb(0, 0, 0), rgb(255, 255, 255));&quot;&gt;Marketplace_Scr&lt;/span&gt;" style="shape=umlLifeline;perimeter=lifelinePerimeter;whiteSpace=wrap;html=1;container=0;dropTarget=0;collapsible=0;recursiveResize=0;outlineConnect=0;portConstraint=eastwest;newEdgeStyle={&quot;edgeStyle&quot;:&quot;elbowEdgeStyle&quot;,&quot;elbow&quot;:&quot;vertical&quot;,&quot;curved&quot;:0,&quot;rounded&quot;:0};" parent="1" vertex="1">
          <mxGeometry x="410" y="40" width="130" height="650" as="geometry" />
        </mxCell>
        <mxCell id="XpciIUGIXHY3oaiCGFSE-14" value="" style="html=1;points=[[0,0,0,0,5],[0,1,0,0,-5],[1,0,0,0,5],[1,1,0,0,-5]];perimeter=orthogonalPerimeter;outlineConnect=0;targetShapes=umlLifeline;portConstraint=eastwest;newEdgeStyle={&quot;curved&quot;:0,&quot;rounded&quot;:0};" parent="aM9ryv3xv72pqoxQDRHE-5" vertex="1">
          <mxGeometry x="60" y="120" width="10" height="40" as="geometry" />
        </mxCell>
        <mxCell id="XpciIUGIXHY3oaiCGFSE-51" value="" style="html=1;points=[[0,0,0,0,5],[0,1,0,0,-5],[1,0,0,0,5],[1,1,0,0,-5]];perimeter=orthogonalPerimeter;outlineConnect=0;targetShapes=umlLifeline;portConstraint=eastwest;newEdgeStyle={&quot;curved&quot;:0,&quot;rounded&quot;:0};" parent="aM9ryv3xv72pqoxQDRHE-5" vertex="1">
          <mxGeometry x="60" y="540" width="10" height="20" as="geometry" />
        </mxCell>
        <mxCell id="XpciIUGIXHY3oaiCGFSE-1" value="Manager" style="shape=umlActor;verticalLabelPosition=bottom;verticalAlign=top;html=1;outlineConnect=0;" parent="1" vertex="1">
          <mxGeometry x="50" y="20" width="30" height="60" as="geometry" />
        </mxCell>
        <mxCell id="XpciIUGIXHY3oaiCGFSE-4" value="" style="endArrow=none;dashed=1;html=1;rounded=0;" parent="1" edge="1">
          <mxGeometry width="50" height="50" relative="1" as="geometry">
            <mxPoint x="60" y="110" as="sourcePoint" />
            <mxPoint x="60" y="690" as="targetPoint" />
          </mxGeometry>
        </mxCell>
        <mxCell id="XpciIUGIXHY3oaiCGFSE-5" value="Mngr_Sugg_Scr" style="shape=umlLifeline;perimeter=lifelinePerimeter;whiteSpace=wrap;html=1;container=0;dropTarget=0;collapsible=0;recursiveResize=0;outlineConnect=0;portConstraint=eastwest;newEdgeStyle={&quot;edgeStyle&quot;:&quot;elbowEdgeStyle&quot;,&quot;elbow&quot;:&quot;vertical&quot;,&quot;curved&quot;:0,&quot;rounded&quot;:0};" parent="1" vertex="1">
          <mxGeometry x="680" y="40" width="100" height="650" as="geometry" />
        </mxCell>
        <mxCell id="XpciIUGIXHY3oaiCGFSE-31" value="" style="html=1;points=[[0,0,0,0,5],[0,1,0,0,-5],[1,0,0,0,5],[1,1,0,0,-5]];perimeter=orthogonalPerimeter;outlineConnect=0;targetShapes=umlLifeline;portConstraint=eastwest;newEdgeStyle={&quot;curved&quot;:0,&quot;rounded&quot;:0};" parent="XpciIUGIXHY3oaiCGFSE-5" vertex="1">
          <mxGeometry x="45" y="220" width="10" height="400" as="geometry" />
        </mxCell>
        <mxCell id="XpciIUGIXHY3oaiCGFSE-7" value="" style="endArrow=block;html=1;rounded=0;endFill=1;" parent="1" target="H98rCoK42WbpM3wih2S7-3" edge="1">
          <mxGeometry width="50" height="50" relative="1" as="geometry">
            <mxPoint x="60" y="130" as="sourcePoint" />
            <mxPoint x="220" y="130" as="targetPoint" />
          </mxGeometry>
        </mxCell>
        <mxCell id="XpciIUGIXHY3oaiCGFSE-8" value="MarketplaceButton()" style="text;html=1;align=center;verticalAlign=middle;resizable=0;points=[];autosize=1;strokeColor=none;fillColor=none;" parent="1" vertex="1">
          <mxGeometry x="70" y="110" width="130" height="30" as="geometry" />
        </mxCell>
        <mxCell id="XpciIUGIXHY3oaiCGFSE-10" value="" style="endArrow=block;html=1;rounded=0;endFill=1;" parent="1" edge="1">
          <mxGeometry width="50" height="50" relative="1" as="geometry">
            <mxPoint x="60" y="185" as="sourcePoint" />
            <mxPoint x="470" y="185" as="targetPoint" />
          </mxGeometry>
        </mxCell>
        <mxCell id="XpciIUGIXHY3oaiCGFSE-11" value="button &amp;amp; TaskType()" style="text;html=1;align=center;verticalAlign=middle;resizable=0;points=[];autosize=1;strokeColor=none;fillColor=none;" parent="1" vertex="1">
          <mxGeometry x="65" y="160" width="130" height="30" as="geometry" />
        </mxCell>
        <mxCell id="XpciIUGIXHY3oaiCGFSE-12" value="" style="endArrow=block;html=1;rounded=0;exitX=0;exitY=1;exitDx=0;exitDy=-5;exitPerimeter=0;endFill=1;" parent="1" source="XpciIUGIXHY3oaiCGFSE-14" target="H98rCoK42WbpM3wih2S7-14" edge="1">
          <mxGeometry width="50" height="50" relative="1" as="geometry">
            <mxPoint x="70" y="198" as="sourcePoint" />
            <mxPoint x="340" y="200" as="targetPoint" />
          </mxGeometry>
        </mxCell>
        <mxCell id="XpciIUGIXHY3oaiCGFSE-13" value="StartSearch()" style="text;html=1;align=center;verticalAlign=middle;resizable=0;points=[];autosize=1;strokeColor=none;fillColor=none;" parent="1" vertex="1">
          <mxGeometry x="360" y="185" width="90" height="30" as="geometry" />
        </mxCell>
        <mxCell id="XpciIUGIXHY3oaiCGFSE-15" value=":Task" style="shape=umlLifeline;perimeter=lifelinePerimeter;whiteSpace=wrap;html=1;container=0;dropTarget=0;collapsible=0;recursiveResize=0;outlineConnect=0;portConstraint=eastwest;newEdgeStyle={&quot;edgeStyle&quot;:&quot;elbowEdgeStyle&quot;,&quot;elbow&quot;:&quot;vertical&quot;,&quot;curved&quot;:0,&quot;rounded&quot;:0};" parent="1" vertex="1">
          <mxGeometry x="560" y="40" width="100" height="650" as="geometry" />
        </mxCell>
        <mxCell id="XpciIUGIXHY3oaiCGFSE-22" value="" style="html=1;points=[[0,0,0,0,5],[0,1,0,0,-5],[1,0,0,0,5],[1,1,0,0,-5]];perimeter=orthogonalPerimeter;outlineConnect=0;targetShapes=umlLifeline;portConstraint=eastwest;newEdgeStyle={&quot;curved&quot;:0,&quot;rounded&quot;:0};" parent="XpciIUGIXHY3oaiCGFSE-15" vertex="1">
          <mxGeometry x="45" y="60" width="10" height="180" as="geometry" />
        </mxCell>
        <mxCell id="XpciIUGIXHY3oaiCGFSE-19" value="" style="endArrow=block;html=1;rounded=0;endFill=1;" parent="1" target="XpciIUGIXHY3oaiCGFSE-22" edge="1">
          <mxGeometry width="50" height="50" relative="1" as="geometry">
            <mxPoint x="350" y="229.99999999999997" as="sourcePoint" />
            <mxPoint x="600" y="230" as="targetPoint" />
            <Array as="points">
              <mxPoint x="490" y="229.99999999999997" />
            </Array>
          </mxGeometry>
        </mxCell>
        <mxCell id="XpciIUGIXHY3oaiCGFSE-20" value="SearchTask()" style="text;html=1;align=center;verticalAlign=middle;resizable=0;points=[];autosize=1;strokeColor=none;fillColor=none;" parent="1" vertex="1">
          <mxGeometry x="450" y="210" width="90" height="30" as="geometry" />
        </mxCell>
        <mxCell id="XpciIUGIXHY3oaiCGFSE-32" value="" style="endArrow=block;html=1;rounded=0;endFill=1;" parent="1" target="XpciIUGIXHY3oaiCGFSE-31" edge="1">
          <mxGeometry width="50" height="50" relative="1" as="geometry">
            <mxPoint x="355" y="290" as="sourcePoint" />
            <mxPoint x="720" y="290" as="targetPoint" />
          </mxGeometry>
        </mxCell>
        <mxCell id="XpciIUGIXHY3oaiCGFSE-33" value="ShowResults()" style="text;html=1;align=center;verticalAlign=middle;resizable=0;points=[];autosize=1;strokeColor=none;fillColor=none;" parent="1" vertex="1">
          <mxGeometry x="350" y="280" width="100" height="30" as="geometry" />
        </mxCell>
        <mxCell id="XpciIUGIXHY3oaiCGFSE-34" value="" style="endArrow=block;html=1;rounded=0;entryX=0.5;entryY=0.2;entryDx=0;entryDy=0;entryPerimeter=0;exitX=0.007;exitY=0.823;exitDx=0;exitDy=0;exitPerimeter=0;endFill=1;" parent="1" source="XpciIUGIXHY3oaiCGFSE-35" edge="1">
          <mxGeometry width="50" height="50" relative="1" as="geometry">
            <mxPoint x="65" y="324.66" as="sourcePoint" />
            <mxPoint x="725" y="324.66" as="targetPoint" />
          </mxGeometry>
        </mxCell>
        <mxCell id="XpciIUGIXHY3oaiCGFSE-35" value="&amp;nbsp;ChooseSuggestion()" style="text;html=1;align=center;verticalAlign=middle;resizable=0;points=[];autosize=1;strokeColor=none;fillColor=none;" parent="1" vertex="1">
          <mxGeometry x="60" y="300" width="140" height="30" as="geometry" />
        </mxCell>
        <mxCell id="XpciIUGIXHY3oaiCGFSE-38" value="return selection" style="text;html=1;align=center;verticalAlign=middle;resizable=0;points=[];autosize=1;strokeColor=none;fillColor=none;" parent="1" vertex="1">
          <mxGeometry x="350" y="340" width="110" height="30" as="geometry" />
        </mxCell>
        <mxCell id="XpciIUGIXHY3oaiCGFSE-45" value="" style="endArrow=block;html=1;rounded=0;endFill=1;" parent="1" target="XpciIUGIXHY3oaiCGFSE-31" edge="1">
          <mxGeometry width="50" height="50" relative="1" as="geometry">
            <mxPoint x="355" y="380" as="sourcePoint" />
            <mxPoint x="720" y="380" as="targetPoint" />
          </mxGeometry>
        </mxCell>
        <mxCell id="XpciIUGIXHY3oaiCGFSE-46" value="ShowDetails()" style="text;html=1;align=center;verticalAlign=middle;resizable=0;points=[];autosize=1;strokeColor=none;fillColor=none;" parent="1" vertex="1">
          <mxGeometry x="350" y="380" width="100" height="30" as="geometry" />
        </mxCell>
        <mxCell id="XpciIUGIXHY3oaiCGFSE-48" value="" style="endArrow=block;html=1;rounded=0;endFill=1;" parent="1" edge="1">
          <mxGeometry width="50" height="50" relative="1" as="geometry">
            <mxPoint x="60" y="579.66" as="sourcePoint" />
            <mxPoint x="470" y="580" as="targetPoint" />
          </mxGeometry>
        </mxCell>
        <mxCell id="XpciIUGIXHY3oaiCGFSE-49" value="Select &quot;Favorites&quot;" style="text;html=1;align=center;verticalAlign=middle;resizable=0;points=[];autosize=1;strokeColor=none;fillColor=none;" parent="1" vertex="1">
          <mxGeometry x="70" y="550" width="120" height="30" as="geometry" />
        </mxCell>
        <mxCell id="05Q-r2xgmYZ5tvKY-RCR-9" value="" style="endArrow=block;html=1;rounded=0;endFill=1;" parent="1" edge="1">
          <mxGeometry width="50" height="50" relative="1" as="geometry">
            <mxPoint x="350" y="604.6600000000001" as="sourcePoint" />
            <mxPoint x="850" y="604.66" as="targetPoint" />
          </mxGeometry>
        </mxCell>
        <mxCell id="05Q-r2xgmYZ5tvKY-RCR-10" value="SearchFavorites()" style="text;html=1;align=center;verticalAlign=middle;resizable=0;points=[];autosize=1;strokeColor=none;fillColor=none;" parent="1" vertex="1">
          <mxGeometry x="350" y="600" width="120" height="30" as="geometry" />
        </mxCell>
        <mxCell id="05Q-r2xgmYZ5tvKY-RCR-11" value="" style="endArrow=block;html=1;rounded=0;endFill=1;" parent="1" edge="1">
          <mxGeometry width="50" height="50" relative="1" as="geometry">
            <mxPoint x="355" y="654.6600000000001" as="sourcePoint" />
            <mxPoint x="725" y="654.66" as="targetPoint" />
          </mxGeometry>
        </mxCell>
        <mxCell id="05Q-r2xgmYZ5tvKY-RCR-12" value="ShowResults()" style="text;html=1;align=center;verticalAlign=middle;resizable=0;points=[];autosize=1;strokeColor=none;fillColor=none;" parent="1" vertex="1">
          <mxGeometry x="355" y="648" width="100" height="30" as="geometry" />
        </mxCell>
        <mxCell id="05Q-r2xgmYZ5tvKY-RCR-14" value="" style="endArrow=block;html=1;rounded=0;entryX=0;entryY=0;entryDx=0;entryDy=5;entryPerimeter=0;endFill=1;" parent="1" edge="1">
          <mxGeometry width="50" height="50" relative="1" as="geometry">
            <mxPoint x="60" y="500" as="sourcePoint" />
            <mxPoint x="725" y="500" as="targetPoint" />
          </mxGeometry>
        </mxCell>
        <mxCell id="05Q-r2xgmYZ5tvKY-RCR-15" value="Add_to_favorites()" style="text;html=1;align=center;verticalAlign=middle;resizable=0;points=[];autosize=1;strokeColor=none;fillColor=none;" parent="1" vertex="1">
          <mxGeometry x="70" y="473" width="120" height="30" as="geometry" />
        </mxCell>
        <mxCell id="LLMZJ4zUkhjg3R11XARm-3" value="" style="endArrow=block;html=1;rounded=0;endFill=1;" parent="1" target="q2buyoBu1xX73KLUiP7z-3" edge="1">
          <mxGeometry width="50" height="50" relative="1" as="geometry">
            <mxPoint x="355" y="550" as="sourcePoint" />
            <mxPoint x="840" y="550" as="targetPoint" />
          </mxGeometry>
        </mxCell>
        <mxCell id="LLMZJ4zUkhjg3R11XARm-4" value="UpdateData()" style="text;html=1;align=center;verticalAlign=middle;resizable=0;points=[];autosize=1;strokeColor=none;fillColor=none;" parent="1" vertex="1">
          <mxGeometry x="740" y="550" width="100" height="30" as="geometry" />
        </mxCell>
        <mxCell id="H98rCoK42WbpM3wih2S7-1" value="" style="endArrow=block;html=1;rounded=0;entryX=0;entryY=0;entryDx=0;entryDy=0;entryPerimeter=0;endFill=1;" parent="1" source="H98rCoK42WbpM3wih2S7-3" target="H98rCoK42WbpM3wih2S7-14" edge="1">
          <mxGeometry width="50" height="50" relative="1" as="geometry">
            <mxPoint x="237.5" y="145" as="sourcePoint" />
            <mxPoint x="342.5" y="145" as="targetPoint" />
            <Array as="points">
              <mxPoint x="308" y="140" />
            </Array>
          </mxGeometry>
        </mxCell>
        <mxCell id="H98rCoK42WbpM3wih2S7-2" value="GetData()" style="text;html=1;align=center;verticalAlign=middle;resizable=0;points=[];autosize=1;strokeColor=none;fillColor=none;" parent="1" vertex="1">
          <mxGeometry x="250" y="115" width="80" height="30" as="geometry" />
        </mxCell>
        <mxCell id="H98rCoK42WbpM3wih2S7-8" value="" style="endArrow=open;html=1;rounded=0;dashed=1;endFill=0;" parent="1" edge="1">
          <mxGeometry width="50" height="50" relative="1" as="geometry">
            <mxPoint x="602.5" y="155" as="sourcePoint" />
            <mxPoint x="360" y="155.41" as="targetPoint" />
          </mxGeometry>
        </mxCell>
        <mxCell id="H98rCoK42WbpM3wih2S7-9" value="return results" style="text;html=1;align=center;verticalAlign=middle;resizable=0;points=[];autosize=1;strokeColor=none;fillColor=none;" parent="1" vertex="1">
          <mxGeometry x="490" y="150" width="90" height="30" as="geometry" />
        </mxCell>
        <mxCell id="H98rCoK42WbpM3wih2S7-10" value="" style="endArrow=block;html=1;rounded=0;endFill=1;" parent="1" target="XpciIUGIXHY3oaiCGFSE-14" edge="1">
          <mxGeometry width="50" height="50" relative="1" as="geometry">
            <mxPoint x="352.5" y="170" as="sourcePoint" />
            <mxPoint x="467.5" y="171" as="targetPoint" />
            <Array as="points">
              <mxPoint x="412.5" y="170.82999999999998" />
            </Array>
          </mxGeometry>
        </mxCell>
        <mxCell id="H98rCoK42WbpM3wih2S7-11" value="ShowResults()" style="text;html=1;align=center;verticalAlign=middle;resizable=0;points=[];autosize=1;strokeColor=none;fillColor=none;" parent="1" vertex="1">
          <mxGeometry x="350" y="150" width="100" height="30" as="geometry" />
        </mxCell>
        <mxCell id="H98rCoK42WbpM3wih2S7-13" value="Manage_&lt;br&gt;&lt;span style=&quot;background-color: transparent; color: light-dark(rgb(0, 0, 0), rgb(255, 255, 255));&quot;&gt;Markt_Class&lt;/span&gt;" style="shape=umlLifeline;perimeter=lifelinePerimeter;whiteSpace=wrap;html=1;container=0;dropTarget=0;collapsible=0;recursiveResize=0;outlineConnect=0;portConstraint=eastwest;newEdgeStyle={&quot;edgeStyle&quot;:&quot;elbowEdgeStyle&quot;,&quot;elbow&quot;:&quot;vertical&quot;,&quot;curved&quot;:0,&quot;rounded&quot;:0};" parent="1" vertex="1">
          <mxGeometry x="300" y="40" width="100" height="650" as="geometry" />
        </mxCell>
        <mxCell id="H98rCoK42WbpM3wih2S7-14" value="" style="html=1;points=[[0,0,0,0,0],[0,1,0,0,-5],[1,0,0,0,0],[1,1,0,0,-5]];perimeter=orthogonalPerimeter;outlineConnect=0;targetShapes=umlLifeline;portConstraint=eastwest;newEdgeStyle={&quot;curved&quot;:0,&quot;rounded&quot;:0};" parent="H98rCoK42WbpM3wih2S7-13" vertex="1">
          <mxGeometry x="45" y="100" width="10" height="310" as="geometry" />
        </mxCell>
        <mxCell id="H98rCoK42WbpM3wih2S7-15" value="" style="html=1;points=[[0,0,0,0,5],[0,1,0,0,-5],[1,0,0,0,5],[1,1,0,0,-5]];perimeter=orthogonalPerimeter;outlineConnect=0;targetShapes=umlLifeline;portConstraint=eastwest;newEdgeStyle={&quot;curved&quot;:0,&quot;rounded&quot;:0};" parent="H98rCoK42WbpM3wih2S7-13" vertex="1">
          <mxGeometry x="45" y="480" width="10" height="140" as="geometry" />
        </mxCell>
        <mxCell id="H98rCoK42WbpM3wih2S7-16" value="" style="endArrow=open;html=1;rounded=0;dashed=1;endFill=0;exitX=0.5;exitY=0.114;exitDx=0;exitDy=0;exitPerimeter=0;" parent="1" edge="1">
          <mxGeometry width="50" height="50" relative="1" as="geometry">
            <mxPoint x="607.5" y="260.0000000000001" as="sourcePoint" />
            <mxPoint x="355" y="260.1" as="targetPoint" />
          </mxGeometry>
        </mxCell>
        <mxCell id="H98rCoK42WbpM3wih2S7-17" value="return data" style="text;html=1;align=center;verticalAlign=middle;resizable=0;points=[];autosize=1;strokeColor=none;fillColor=none;" parent="1" vertex="1">
          <mxGeometry x="355" y="240" width="80" height="30" as="geometry" />
        </mxCell>
        <mxCell id="H98rCoK42WbpM3wih2S7-18" value="" style="endArrow=open;html=1;rounded=0;dashed=1;endFill=0;" parent="1" target="H98rCoK42WbpM3wih2S7-14" edge="1">
          <mxGeometry width="50" height="50" relative="1" as="geometry">
            <mxPoint x="725" y="360" as="sourcePoint" />
            <mxPoint x="65" y="360" as="targetPoint" />
          </mxGeometry>
        </mxCell>
        <mxCell id="H98rCoK42WbpM3wih2S7-20" value="" style="endArrow=open;html=1;rounded=0;dashed=1;endFill=0;" parent="1" edge="1">
          <mxGeometry width="50" height="50" relative="1" as="geometry">
            <mxPoint x="850" y="630" as="sourcePoint" />
            <mxPoint x="355" y="630.3100000000001" as="targetPoint" />
          </mxGeometry>
        </mxCell>
        <mxCell id="H98rCoK42WbpM3wih2S7-21" value="return data" style="text;html=1;align=center;verticalAlign=middle;resizable=0;points=[];autosize=1;strokeColor=none;fillColor=none;" parent="1" vertex="1">
          <mxGeometry x="360" y="625" width="80" height="30" as="geometry" />
        </mxCell>
        <mxCell id="H98rCoK42WbpM3wih2S7-22" value="" style="endArrow=open;html=1;rounded=0;dashed=1;endFill=0;" parent="1" target="H98rCoK42WbpM3wih2S7-15" edge="1">
          <mxGeometry width="50" height="50" relative="1" as="geometry">
            <mxPoint x="725" y="520" as="sourcePoint" />
            <mxPoint x="360" y="520" as="targetPoint" />
          </mxGeometry>
        </mxCell>
        <mxCell id="H98rCoK42WbpM3wih2S7-23" value="return favorite" style="text;html=1;align=center;verticalAlign=middle;resizable=0;points=[];autosize=1;strokeColor=none;fillColor=none;" parent="1" vertex="1">
          <mxGeometry x="345" y="520" width="100" height="30" as="geometry" />
        </mxCell>
        <mxCell id="34CBw4b4ZdrORiOZopte-6" value="" style="endArrow=classic;html=1;rounded=0;" parent="1" target="XpciIUGIXHY3oaiCGFSE-15" edge="1">
          <mxGeometry width="50" height="50" relative="1" as="geometry">
            <mxPoint x="355" y="150" as="sourcePoint" />
            <mxPoint x="515" y="150" as="targetPoint" />
          </mxGeometry>
        </mxCell>
        <mxCell id="34CBw4b4ZdrORiOZopte-7" value="SearchQuery()" style="text;html=1;align=center;verticalAlign=middle;resizable=0;points=[];autosize=1;strokeColor=none;fillColor=none;" parent="1" vertex="1">
          <mxGeometry x="445" y="125" width="100" height="30" as="geometry" />
        </mxCell>
        <mxCell id="q2buyoBu1xX73KLUiP7z-1" value=":Favorites" style="shape=umlLifeline;perimeter=lifelinePerimeter;whiteSpace=wrap;html=1;container=0;dropTarget=0;collapsible=0;recursiveResize=0;outlineConnect=0;portConstraint=eastwest;newEdgeStyle={&quot;edgeStyle&quot;:&quot;elbowEdgeStyle&quot;,&quot;elbow&quot;:&quot;vertical&quot;,&quot;curved&quot;:0,&quot;rounded&quot;:0};" parent="1" vertex="1">
          <mxGeometry x="805" y="40" width="100" height="650" as="geometry" />
        </mxCell>
        <mxCell id="q2buyoBu1xX73KLUiP7z-3" value="" style="html=1;points=[[0,0,0,0,5],[0,1,0,0,-5],[1,0,0,0,5],[1,1,0,0,-5]];perimeter=orthogonalPerimeter;outlineConnect=0;targetShapes=umlLifeline;portConstraint=eastwest;newEdgeStyle={&quot;curved&quot;:0,&quot;rounded&quot;:0};" parent="q2buyoBu1xX73KLUiP7z-1" vertex="1">
          <mxGeometry x="45" y="510" width="10" height="30" as="geometry" />
        </mxCell>
        <mxCell id="q2buyoBu1xX73KLUiP7z-4" value="" style="html=1;points=[[0,0,0,0,5],[0,1,0,0,-5],[1,0,0,0,5],[1,1,0,0,-5]];perimeter=orthogonalPerimeter;outlineConnect=0;targetShapes=umlLifeline;portConstraint=eastwest;newEdgeStyle={&quot;curved&quot;:0,&quot;rounded&quot;:0};" parent="q2buyoBu1xX73KLUiP7z-1" vertex="1">
          <mxGeometry x="45" y="560" width="10" height="30" as="geometry" />
        </mxCell>
        <mxCell id="gPNWkS_njnOnVbvOl7r_-1" value="" style="endArrow=open;html=1;rounded=0;exitX=0;exitY=0;exitDx=0;exitDy=5;exitPerimeter=0;endFill=0;dashed=1;" parent="1" edge="1">
          <mxGeometry width="50" height="50" relative="1" as="geometry">
            <mxPoint x="470" y="600" as="sourcePoint" />
            <mxPoint x="355" y="600" as="targetPoint" />
          </mxGeometry>
        </mxCell>
        <mxCell id="gPNWkS_njnOnVbvOl7r_-2" value="ReturnFavorites()" style="text;html=1;align=center;verticalAlign=middle;resizable=0;points=[];autosize=1;strokeColor=none;fillColor=none;" parent="1" vertex="1">
          <mxGeometry x="355" y="580" width="120" height="30" as="geometry" />
        </mxCell>
      </root>
    </mxGraphModel>
  </diagram>
</mxfile>
